#define plus_width 30
#define plus_height 30
static char plus_bits[] = {
   0x00, 0x00, 0x00, 0x00, 0x00, 0x00, 0x00, 0x00, 0x00, 0x00, 0x00, 0x00,
   0x00, 0x00, 0x00, 0x00, 0xe0, 0xff, 0xff, 0x01, 0x10, 0x00, 0x00, 0x02,
   0x10, 0x00, 0x00, 0x02, 0x10, 0x00, 0x00, 0x02, 0x10, 0xc0, 0x00, 0x02,
   0x10, 0xe0, 0x01, 0x02, 0x10, 0xe0, 0x01, 0x02, 0x10, 0xe0, 0x01, 0x02,
   0x10, 0xe0, 0x01, 0x02, 0x10, 0xfe, 0x1f, 0x02, 0x10, 0xff, 0x3f, 0x02,
   0x10, 0xff, 0x3f, 0x02, 0x10, 0xfe, 0x1f, 0x02, 0x10, 0xe0, 0x01, 0x02,
   0x10, 0xe0, 0x01, 0x02, 0x10, 0xe0, 0x01, 0x02, 0x10, 0xe0, 0x01, 0x02,
   0x10, 0xc0, 0x00, 0x02, 0x10, 0x00, 0x00, 0x02, 0x10, 0x00, 0x00, 0x02,
   0x10, 0x00, 0x00, 0x02, 0xe0, 0xff, 0xff, 0x01, 0x00, 0x00, 0x00, 0x00,
   0x00, 0x00, 0x00, 0x00, 0x00, 0x00, 0x00, 0x00, 0x00, 0x00, 0x00, 0x00};
