#define quitleft_width 30
#define quitleft_height 30
static char quitleft_bits[] = {
   0x00, 0x00, 0x00, 0x00, 0x00, 0x00, 0x00, 0x00, 0x00, 0x00, 0x00, 0x00,
   0x00, 0x00, 0x00, 0x00, 0xff, 0xff, 0xff, 0x00, 0x00, 0x00, 0x00, 0x01,
   0x00, 0x00, 0x00, 0x01, 0x00, 0x00, 0x00, 0x01, 0x00, 0x80, 0x00, 0x01,
   0x08, 0xf3, 0x0f, 0x01, 0x86, 0xc3, 0x07, 0x01, 0x84, 0xc1, 0x02, 0x01,
   0x8e, 0x83, 0x00, 0x01, 0x8e, 0x41, 0x00, 0x01, 0x86, 0xc1, 0x00, 0x01,
   0xc6, 0xc1, 0x00, 0x01, 0x46, 0x41, 0x00, 0x01, 0x46, 0x60, 0x00, 0x01,
   0xc7, 0xe1, 0x00, 0x01, 0xc3, 0x60, 0x00, 0x01, 0x43, 0x20, 0x00, 0x01,
   0x00, 0x00, 0x00, 0x01, 0x00, 0x00, 0x00, 0x01, 0x00, 0x00, 0x00, 0x01,
   0x00, 0x00, 0x00, 0x01, 0xff, 0xff, 0xff, 0x00, 0x00, 0x00, 0x00, 0x00,
   0x00, 0x00, 0x00, 0x00, 0x00, 0x00, 0x00, 0x00, 0x00, 0x00, 0x00, 0x00};
