#define quitright_width 30
#define quitright_height 30
static char quitright_bits[] = {
   0x00, 0x00, 0x00, 0x00, 0x00, 0x00, 0x00, 0x00, 0x00, 0x00, 0x00, 0x00,
   0x00, 0x00, 0x00, 0x00, 0xc0, 0xff, 0xff, 0x3f, 0x20, 0x00, 0x00, 0x00,
   0x20, 0x00, 0x00, 0x00, 0x20, 0x00, 0x00, 0x00, 0x20, 0x00, 0x01, 0x00,
   0x20, 0xe0, 0x07, 0x0c, 0x20, 0x70, 0x03, 0x06, 0x20, 0x30, 0x09, 0x06,
   0x20, 0x20, 0x08, 0x03, 0x20, 0x30, 0x08, 0x03, 0x20, 0x10, 0x0c, 0x07,
   0x20, 0x30, 0x08, 0x03, 0x20, 0x30, 0x0f, 0x03, 0x20, 0x10, 0x0e, 0x04,
   0x20, 0x70, 0x1c, 0x26, 0x20, 0xe0, 0x1f, 0x1e, 0x20, 0xc0, 0x31, 0x2c,
   0x20, 0x00, 0x00, 0x00, 0x20, 0x00, 0x00, 0x00, 0x20, 0x00, 0x00, 0x00,
   0x20, 0x00, 0x00, 0x00, 0xc0, 0xff, 0xff, 0x3f, 0x00, 0x00, 0x00, 0x00,
   0x00, 0x00, 0x00, 0x00, 0x00, 0x00, 0x00, 0x00, 0x00, 0x00, 0x00, 0x00};
