#define startright_width 30
#define startright_height 30
static char startright_bits[] = {
   0x00, 0x00, 0x00, 0x00, 0x00, 0x00, 0x00, 0x00, 0x00, 0x00, 0x00, 0x00,
   0x00, 0x00, 0x00, 0x00, 0xff, 0xff, 0xff, 0x00, 0x00, 0x00, 0x00, 0x01,
   0x00, 0x00, 0x00, 0x01, 0x00, 0x00, 0x00, 0x01, 0x00, 0x00, 0x00, 0x01,
   0xc3, 0xc7, 0x3f, 0x01, 0xe7, 0x0d, 0x1f, 0x01, 0x64, 0x08, 0x0b, 0x01,
   0x24, 0x08, 0x02, 0x01, 0x24, 0x04, 0x01, 0x01, 0xe6, 0x03, 0x03, 0x01,
   0x67, 0x03, 0x03, 0x01, 0xe4, 0x02, 0x01, 0x01, 0x24, 0x83, 0x01, 0x01,
   0x24, 0x87, 0x03, 0x01, 0x24, 0x8e, 0x01, 0x01, 0x34, 0x84, 0x00, 0x01,
   0x00, 0x00, 0x00, 0x01, 0x00, 0x00, 0x00, 0x01, 0x00, 0x00, 0x00, 0x01,
   0x00, 0x00, 0x00, 0x01, 0xff, 0xff, 0xff, 0x00, 0x00, 0x00, 0x00, 0x00,
   0x00, 0x00, 0x00, 0x00, 0x00, 0x00, 0x00, 0x00, 0x00, 0x00, 0x00, 0x00};
