#define startleft_width 30
#define startleft_height 30
static char startleft_bits[] = {
   0x00, 0x00, 0x00, 0x00, 0x00, 0x00, 0x00, 0x00, 0x00, 0x00, 0x00, 0x00,
   0x00, 0x00, 0x00, 0x00, 0xc0, 0xff, 0xff, 0x3f, 0x20, 0x00, 0x00, 0x00,
   0x20, 0x00, 0x00, 0x00, 0x20, 0x00, 0x00, 0x00, 0x20, 0x00, 0x00, 0x00,
   0x20, 0x7e, 0xfe, 0x31, 0x20, 0x67, 0xe4, 0x38, 0x20, 0x0b, 0x38, 0x1c,
   0x20, 0x01, 0x30, 0x0c, 0x20, 0x03, 0x30, 0x0c, 0x20, 0x37, 0x20, 0x0c,
   0x20, 0x7e, 0x20, 0x3c, 0x20, 0x60, 0x30, 0x0c, 0x20, 0x40, 0x30, 0x04,
   0x20, 0x61, 0x18, 0x04, 0x20, 0x77, 0x38, 0x04, 0x20, 0x3e, 0x18, 0x06,
   0x20, 0x00, 0x00, 0x00, 0x20, 0x00, 0x00, 0x00, 0x20, 0x00, 0x00, 0x00,
   0x20, 0x00, 0x00, 0x00, 0xc0, 0xff, 0xff, 0x3f, 0x00, 0x00, 0x00, 0x00,
   0x00, 0x00, 0x00, 0x00, 0x00, 0x00, 0x00, 0x00, 0x00, 0x00, 0x00, 0x00};
